<mxfile host="drawio-plugin" modified="2022-11-30T12:00:03.488Z" agent="5.0 (Windows NT 6.2; Win64; x64) AppleWebKit/537.36 (KHTML, like Gecko) Chrome/98.0.4758.102 Safari/537.36" etag="9sY48qzdlLIbTCrLVeXu" version="20.5.3" type="embed"><diagram id="C5RBs43oDa-KdzZeNtuy" name="Page-1"><mxGraphModel dx="2623" dy="1135" grid="1" gridSize="10" guides="1" tooltips="1" connect="1" arrows="1" fold="1" page="1" pageScale="1" pageWidth="827" pageHeight="1169" math="0" shadow="0"><root><mxCell id="WIyWlLk6GJQsqaUBKTNV-0"/><mxCell id="WIyWlLk6GJQsqaUBKTNV-1" parent="WIyWlLk6GJQsqaUBKTNV-0"/><mxCell id="pZTSC4Wf04tbW2nxhNo6-11" style="edgeStyle=orthogonalEdgeStyle;rounded=0;orthogonalLoop=1;jettySize=auto;html=1;" parent="WIyWlLk6GJQsqaUBKTNV-1" source="15MtxCm3tCXQqDBKVbkR-39" target="15MtxCm3tCXQqDBKVbkR-35" edge="1"><mxGeometry relative="1" as="geometry"><Array as="points"><mxPoint x="700" y="720"/><mxPoint x="700" y="908"/></Array></mxGeometry></mxCell><mxCell id="6" style="edgeStyle=orthogonalEdgeStyle;rounded=0;orthogonalLoop=1;jettySize=auto;html=1;" parent="WIyWlLk6GJQsqaUBKTNV-1" source="15MtxCm3tCXQqDBKVbkR-39" target="6AeWRE8-R8-ub3u7tAaj-12" edge="1"><mxGeometry relative="1" as="geometry"><Array as="points"><mxPoint x="100" y="699"/></Array></mxGeometry></mxCell><mxCell id="15MtxCm3tCXQqDBKVbkR-39" value="Answer" style="swimlane;fontStyle=1;align=center;verticalAlign=top;childLayout=stackLayout;horizontal=1;startSize=26;horizontalStack=0;resizeParent=1;resizeParentMax=0;resizeLast=0;collapsible=1;marginBottom=0;" parent="WIyWlLk6GJQsqaUBKTNV-1" vertex="1"><mxGeometry x="300" y="630" width="221" height="138" as="geometry"/></mxCell><mxCell id="15MtxCm3tCXQqDBKVbkR-40" value="+ substitution: Substitution " style="text;strokeColor=none;fillColor=none;align=left;verticalAlign=top;spacingLeft=4;spacingRight=4;overflow=hidden;rotatable=0;points=[[0,0.5],[1,0.5]];portConstraint=eastwest;" parent="15MtxCm3tCXQqDBKVbkR-39" vertex="1"><mxGeometry y="26" width="221" height="26" as="geometry"/></mxCell><mxCell id="15MtxCm3tCXQqDBKVbkR-44" value="+ evidence: AtomList" style="text;strokeColor=none;fillColor=none;align=left;verticalAlign=top;spacingLeft=4;spacingRight=4;overflow=hidden;rotatable=0;points=[[0,0.5],[1,0.5]];portConstraint=eastwest;" parent="15MtxCm3tCXQqDBKVbkR-39" vertex="1"><mxGeometry y="52" width="221" height="26" as="geometry"/></mxCell><mxCell id="15MtxCm3tCXQqDBKVbkR-43" value="+ premise: AtomList" style="text;strokeColor=none;fillColor=none;align=left;verticalAlign=top;spacingLeft=4;spacingRight=4;overflow=hidden;rotatable=0;points=[[0,0.5],[1,0.5]];portConstraint=eastwest;" parent="15MtxCm3tCXQqDBKVbkR-39" vertex="1"><mxGeometry y="78" width="221" height="26" as="geometry"/></mxCell><mxCell id="15MtxCm3tCXQqDBKVbkR-41" value="" style="line;strokeWidth=1;fillColor=none;align=left;verticalAlign=middle;spacingTop=-1;spacingLeft=3;spacingRight=3;rotatable=0;labelPosition=right;points=[];portConstraint=eastwest;strokeColor=inherit;" parent="15MtxCm3tCXQqDBKVbkR-39" vertex="1"><mxGeometry y="104" width="221" height="8" as="geometry"/></mxCell><mxCell id="15MtxCm3tCXQqDBKVbkR-42" value="+ update(Program, time): Set&lt;Answer&gt;" style="text;strokeColor=none;fillColor=none;align=left;verticalAlign=top;spacingLeft=4;spacingRight=4;overflow=hidden;rotatable=0;points=[[0,0.5],[1,0.5]];portConstraint=eastwest;" parent="15MtxCm3tCXQqDBKVbkR-39" vertex="1"><mxGeometry y="112" width="221" height="26" as="geometry"/></mxCell><mxCell id="pZTSC4Wf04tbW2nxhNo6-35" style="edgeStyle=orthogonalEdgeStyle;rounded=0;orthogonalLoop=1;jettySize=auto;html=1;" parent="WIyWlLk6GJQsqaUBKTNV-1" source="pZTSC4Wf04tbW2nxhNo6-14" target="bf_opKrQrq_g4lvTxoD_-8" edge="1"><mxGeometry relative="1" as="geometry"><Array as="points"><mxPoint x="530" y="1170"/><mxPoint x="750" y="1170"/><mxPoint x="750" y="1229"/></Array></mxGeometry></mxCell><mxCell id="pZTSC4Wf04tbW2nxhNo6-14" value="Unify" style="swimlane;fontStyle=1;align=center;verticalAlign=top;childLayout=stackLayout;horizontal=1;startSize=26;horizontalStack=0;resizeParent=1;resizeParentMax=0;resizeLast=0;collapsible=1;marginBottom=0;" parent="WIyWlLk6GJQsqaUBKTNV-1" vertex="1"><mxGeometry x="390" y="1020" width="280" height="104" as="geometry"/></mxCell><mxCell id="pZTSC4Wf04tbW2nxhNo6-15" value="+ findMGU(Atom, Atom): Substitution" style="text;strokeColor=none;fillColor=none;align=left;verticalAlign=top;spacingLeft=4;spacingRight=4;overflow=hidden;rotatable=0;points=[[0,0.5],[1,0.5]];portConstraint=eastwest;" parent="pZTSC4Wf04tbW2nxhNo6-14" vertex="1"><mxGeometry y="26" width="280" height="26" as="geometry"/></mxCell><mxCell id="pZTSC4Wf04tbW2nxhNo6-18" value="- unify(Term, Term): Substitution" style="text;strokeColor=none;fillColor=none;align=left;verticalAlign=top;spacingLeft=4;spacingRight=4;overflow=hidden;rotatable=0;points=[[0,0.5],[1,0.5]];portConstraint=eastwest;" parent="pZTSC4Wf04tbW2nxhNo6-14" vertex="1"><mxGeometry y="52" width="280" height="26" as="geometry"/></mxCell><mxCell id="pZTSC4Wf04tbW2nxhNo6-19" value="- unifyTemporal(Temporal, Temporal): Substitution" style="text;strokeColor=none;fillColor=none;align=left;verticalAlign=top;spacingLeft=4;spacingRight=4;overflow=hidden;rotatable=0;points=[[0,0.5],[1,0.5]];portConstraint=eastwest;" parent="pZTSC4Wf04tbW2nxhNo6-14" vertex="1"><mxGeometry y="78" width="280" height="26" as="geometry"/></mxCell><mxCell id="pZTSC4Wf04tbW2nxhNo6-31" style="edgeStyle=orthogonalEdgeStyle;rounded=0;orthogonalLoop=1;jettySize=auto;html=1;" parent="WIyWlLk6GJQsqaUBKTNV-1" source="pZTSC4Wf04tbW2nxhNo6-24" target="15MtxCm3tCXQqDBKVbkR-39" edge="1"><mxGeometry relative="1" as="geometry"><Array as="points"><mxPoint x="185" y="660"/></Array></mxGeometry></mxCell><mxCell id="15" style="edgeStyle=orthogonalEdgeStyle;rounded=0;orthogonalLoop=1;jettySize=auto;html=1;" parent="WIyWlLk6GJQsqaUBKTNV-1" source="pZTSC4Wf04tbW2nxhNo6-24" target="pZTSC4Wf04tbW2nxhNo6-14" edge="1"><mxGeometry relative="1" as="geometry"><Array as="points"><mxPoint x="185" y="830"/><mxPoint x="530" y="830"/></Array></mxGeometry></mxCell><mxCell id="pZTSC4Wf04tbW2nxhNo6-24" value="ModifiedSLDResolution" style="swimlane;fontStyle=1;align=center;verticalAlign=top;childLayout=stackLayout;horizontal=1;startSize=26;horizontalStack=0;resizeParent=1;resizeParentMax=0;resizeLast=0;collapsible=1;marginBottom=0;" parent="WIyWlLk6GJQsqaUBKTNV-1" vertex="1"><mxGeometry x="-20" y="451" width="410" height="130" as="geometry"/></mxCell><mxCell id="pZTSC4Wf04tbW2nxhNo6-27" value="+ preprocess(Progam, AtomList): List&lt;Answer&gt;" style="text;strokeColor=none;fillColor=none;align=left;verticalAlign=top;spacingLeft=4;spacingRight=4;overflow=hidden;rotatable=0;points=[[0,0.5],[1,0.5]];portConstraint=eastwest;" parent="pZTSC4Wf04tbW2nxhNo6-24" vertex="1"><mxGeometry y="26" width="410" height="26" as="geometry"/></mxCell><mxCell id="pZTSC4Wf04tbW2nxhNo6-28" value="- inOrderTraversal(List&lt;Answer&gt;, AtomList, Substitution, Program): Void" style="text;strokeColor=none;fillColor=none;align=left;verticalAlign=top;spacingLeft=4;spacingRight=4;overflow=hidden;rotatable=0;points=[[0,0.5],[1,0.5]];portConstraint=eastwest;" parent="pZTSC4Wf04tbW2nxhNo6-24" vertex="1"><mxGeometry y="52" width="410" height="26" as="geometry"/></mxCell><mxCell id="pZTSC4Wf04tbW2nxhNo6-29" value="- selectAtom(AtomList, Program): Atom" style="text;strokeColor=none;fillColor=none;align=left;verticalAlign=top;spacingLeft=4;spacingRight=4;overflow=hidden;rotatable=0;points=[[0,0.5],[1,0.5]];portConstraint=eastwest;" parent="pZTSC4Wf04tbW2nxhNo6-24" vertex="1"><mxGeometry y="78" width="410" height="26" as="geometry"/></mxCell><mxCell id="pZTSC4Wf04tbW2nxhNo6-30" value="- isFinished(AtomList): Boolean" style="text;strokeColor=none;fillColor=none;align=left;verticalAlign=top;spacingLeft=4;spacingRight=4;overflow=hidden;rotatable=0;points=[[0,0.5],[1,0.5]];portConstraint=eastwest;" parent="pZTSC4Wf04tbW2nxhNo6-24" vertex="1"><mxGeometry y="104" width="410" height="26" as="geometry"/></mxCell><mxCell id="6AeWRE8-R8-ub3u7tAaj-17" style="edgeStyle=orthogonalEdgeStyle;rounded=0;orthogonalLoop=1;jettySize=auto;html=1;" parent="WIyWlLk6GJQsqaUBKTNV-1" source="6AeWRE8-R8-ub3u7tAaj-12" target="bf_opKrQrq_g4lvTxoD_-8" edge="1"><mxGeometry relative="1" as="geometry"><Array as="points"><mxPoint x="100" y="1270"/></Array></mxGeometry></mxCell><mxCell id="6AeWRE8-R8-ub3u7tAaj-12" value="SLDResolution" style="swimlane;fontStyle=1;align=center;verticalAlign=top;childLayout=stackLayout;horizontal=1;startSize=26;horizontalStack=0;resizeParent=1;resizeParentMax=0;resizeLast=0;collapsible=1;marginBottom=0;" parent="WIyWlLk6GJQsqaUBKTNV-1" vertex="1"><mxGeometry x="-110" y="1010" width="420" height="104" as="geometry"/></mxCell><mxCell id="6AeWRE8-R8-ub3u7tAaj-13" value="+ findSubstitutions(Progam, AtomList): List&lt;Substitutes&gt;" style="text;strokeColor=none;fillColor=none;align=left;verticalAlign=top;spacingLeft=4;spacingRight=4;overflow=hidden;rotatable=0;points=[[0,0.5],[1,0.5]];portConstraint=eastwest;" parent="6AeWRE8-R8-ub3u7tAaj-12" vertex="1"><mxGeometry y="26" width="420" height="26" as="geometry"/></mxCell><mxCell id="6AeWRE8-R8-ub3u7tAaj-14" value="- inOrderTraversal(List&lt;Substitutes&gt;, AtomList, Substitution, Program): Void" style="text;strokeColor=none;fillColor=none;align=left;verticalAlign=top;spacingLeft=4;spacingRight=4;overflow=hidden;rotatable=0;points=[[0,0.5],[1,0.5]];portConstraint=eastwest;" parent="6AeWRE8-R8-ub3u7tAaj-12" vertex="1"><mxGeometry y="52" width="420" height="26" as="geometry"/></mxCell><mxCell id="6AeWRE8-R8-ub3u7tAaj-15" value="- selectAtom(AtomList, Program): Atom" style="text;strokeColor=none;fillColor=none;align=left;verticalAlign=top;spacingLeft=4;spacingRight=4;overflow=hidden;rotatable=0;points=[[0,0.5],[1,0.5]];portConstraint=eastwest;" parent="6AeWRE8-R8-ub3u7tAaj-12" vertex="1"><mxGeometry y="78" width="420" height="26" as="geometry"/></mxCell><mxCell id="6AeWRE8-R8-ub3u7tAaj-31" style="edgeStyle=orthogonalEdgeStyle;rounded=0;orthogonalLoop=1;jettySize=auto;html=1;entryX=0.5;entryY=0;entryDx=0;entryDy=0;" parent="WIyWlLk6GJQsqaUBKTNV-1" source="6AeWRE8-R8-ub3u7tAaj-20" target="0" edge="1"><mxGeometry relative="1" as="geometry"><mxPoint x="35" y="410" as="targetPoint"/></mxGeometry></mxCell><mxCell id="6AeWRE8-R8-ub3u7tAaj-20" value="HypotheticalReasoner" style="swimlane;fontStyle=1;align=center;verticalAlign=top;childLayout=stackLayout;horizontal=1;startSize=26;horizontalStack=0;resizeParent=1;resizeParentMax=0;resizeLast=0;collapsible=1;marginBottom=0;" parent="WIyWlLk6GJQsqaUBKTNV-1" vertex="1"><mxGeometry x="460" y="160" width="200" height="216" as="geometry"/></mxCell><mxCell id="6AeWRE8-R8-ub3u7tAaj-21" value="- pBuilder: ProgramBuilder" style="text;strokeColor=none;fillColor=none;align=left;verticalAlign=top;spacingLeft=4;spacingRight=4;overflow=hidden;rotatable=0;points=[[0,0.5],[1,0.5]];portConstraint=eastwest;" parent="6AeWRE8-R8-ub3u7tAaj-20" vertex="1"><mxGeometry y="26" width="200" height="26" as="geometry"/></mxCell><mxCell id="6AeWRE8-R8-ub3u7tAaj-24" value="- queries: List&lt;Query&gt;" style="text;strokeColor=none;fillColor=none;align=left;verticalAlign=top;spacingLeft=4;spacingRight=4;overflow=hidden;rotatable=0;points=[[0,0.5],[1,0.5]];portConstraint=eastwest;" parent="6AeWRE8-R8-ub3u7tAaj-20" vertex="1"><mxGeometry y="52" width="200" height="26" as="geometry"/></mxCell><mxCell id="6AeWRE8-R8-ub3u7tAaj-26" value="- time: int" style="text;strokeColor=none;fillColor=none;align=left;verticalAlign=top;spacingLeft=4;spacingRight=4;overflow=hidden;rotatable=0;points=[[0,0.5],[1,0.5]];portConstraint=eastwest;" parent="6AeWRE8-R8-ub3u7tAaj-20" vertex="1"><mxGeometry y="78" width="200" height="26" as="geometry"/></mxCell><mxCell id="6AeWRE8-R8-ub3u7tAaj-22" value="" style="line;strokeWidth=1;fillColor=none;align=left;verticalAlign=middle;spacingTop=-1;spacingLeft=3;spacingRight=3;rotatable=0;labelPosition=right;points=[];portConstraint=eastwest;strokeColor=inherit;" parent="6AeWRE8-R8-ub3u7tAaj-20" vertex="1"><mxGeometry y="104" width="200" height="8" as="geometry"/></mxCell><mxCell id="6AeWRE8-R8-ub3u7tAaj-23" value="+ addClause(String): void" style="text;strokeColor=none;fillColor=none;align=left;verticalAlign=top;spacingLeft=4;spacingRight=4;overflow=hidden;rotatable=0;points=[[0,0.5],[1,0.5]];portConstraint=eastwest;" parent="6AeWRE8-R8-ub3u7tAaj-20" vertex="1"><mxGeometry y="112" width="200" height="26" as="geometry"/></mxCell><mxCell id="6AeWRE8-R8-ub3u7tAaj-28" value="+ query(String): void" style="text;strokeColor=none;fillColor=none;align=left;verticalAlign=top;spacingLeft=4;spacingRight=4;overflow=hidden;rotatable=0;points=[[0,0.5],[1,0.5]];portConstraint=eastwest;" parent="6AeWRE8-R8-ub3u7tAaj-20" vertex="1"><mxGeometry y="138" width="200" height="26" as="geometry"/></mxCell><mxCell id="6AeWRE8-R8-ub3u7tAaj-29" value="+ nextTime(String): void" style="text;strokeColor=none;fillColor=none;align=left;verticalAlign=top;spacingLeft=4;spacingRight=4;overflow=hidden;rotatable=0;points=[[0,0.5],[1,0.5]];portConstraint=eastwest;" parent="6AeWRE8-R8-ub3u7tAaj-20" vertex="1"><mxGeometry y="164" width="200" height="26" as="geometry"/></mxCell><mxCell id="6AeWRE8-R8-ub3u7tAaj-30" value="+ toString(): String" style="text;strokeColor=none;fillColor=none;align=left;verticalAlign=top;spacingLeft=4;spacingRight=4;overflow=hidden;rotatable=0;points=[[0,0.5],[1,0.5]];portConstraint=eastwest;" parent="6AeWRE8-R8-ub3u7tAaj-20" vertex="1"><mxGeometry y="190" width="200" height="26" as="geometry"/></mxCell><mxCell id="6AeWRE8-R8-ub3u7tAaj-32" style="edgeStyle=orthogonalEdgeStyle;rounded=0;orthogonalLoop=1;jettySize=auto;html=1;entryX=0.5;entryY=0;entryDx=0;entryDy=0;" parent="WIyWlLk6GJQsqaUBKTNV-1" source="6AeWRE8-R8-ub3u7tAaj-26" target="pZTSC4Wf04tbW2nxhNo6-24" edge="1"><mxGeometry relative="1" as="geometry"/></mxCell><mxCell id="6AeWRE8-R8-ub3u7tAaj-33" style="edgeStyle=orthogonalEdgeStyle;rounded=0;orthogonalLoop=1;jettySize=auto;html=1;entryX=0.5;entryY=0;entryDx=0;entryDy=0;" parent="WIyWlLk6GJQsqaUBKTNV-1" source="6AeWRE8-R8-ub3u7tAaj-24" target="15MtxCm3tCXQqDBKVbkR-1" edge="1"><mxGeometry relative="1" as="geometry"/></mxCell><mxCell id="15MtxCm3tCXQqDBKVbkR-32" value="Logic" style="swimlane;" parent="WIyWlLk6GJQsqaUBKTNV-1" vertex="1"><mxGeometry x="770" y="420" width="854" height="1122" as="geometry"><mxRectangle x="750" y="90" width="70" height="30" as="alternateBounds"/></mxGeometry></mxCell><mxCell id="15MtxCm3tCXQqDBKVbkR-1" value="ProgramBuilder" style="swimlane;fontStyle=1;align=center;verticalAlign=top;childLayout=stackLayout;horizontal=1;startSize=26;horizontalStack=0;resizeParent=1;resizeParentMax=0;resizeLast=0;collapsible=1;marginBottom=0;" parent="15MtxCm3tCXQqDBKVbkR-32" vertex="1"><mxGeometry x="70" y="48" width="210" height="190" as="geometry"/></mxCell><mxCell id="15MtxCm3tCXQqDBKVbkR-2" value="- predicates: Map&lt;String, Predicate&gt;" style="text;strokeColor=none;fillColor=none;align=left;verticalAlign=top;spacingLeft=4;spacingRight=4;overflow=hidden;rotatable=0;points=[[0,0.5],[1,0.5]];portConstraint=eastwest;" parent="15MtxCm3tCXQqDBKVbkR-1" vertex="1"><mxGeometry y="26" width="210" height="26" as="geometry"/></mxCell><mxCell id="15MtxCm3tCXQqDBKVbkR-6" value="- terms: Map&lt;String, Term&gt;" style="text;strokeColor=none;fillColor=none;align=left;verticalAlign=top;spacingLeft=4;spacingRight=4;overflow=hidden;rotatable=0;points=[[0,0.5],[1,0.5]];portConstraint=eastwest;" parent="15MtxCm3tCXQqDBKVbkR-1" vertex="1"><mxGeometry y="52" width="210" height="26" as="geometry"/></mxCell><mxCell id="15MtxCm3tCXQqDBKVbkR-5" value="- temporalVar: Map&lt;String, Variable&gt;" style="text;strokeColor=none;fillColor=none;align=left;verticalAlign=top;spacingLeft=4;spacingRight=4;overflow=hidden;rotatable=0;points=[[0,0.5],[1,0.5]];portConstraint=eastwest;" parent="15MtxCm3tCXQqDBKVbkR-1" vertex="1"><mxGeometry y="78" width="210" height="26" as="geometry"/></mxCell><mxCell id="15MtxCm3tCXQqDBKVbkR-3" value="" style="line;strokeWidth=1;fillColor=none;align=left;verticalAlign=middle;spacingTop=-1;spacingLeft=3;spacingRight=3;rotatable=0;labelPosition=right;points=[];portConstraint=eastwest;strokeColor=inherit;" parent="15MtxCm3tCXQqDBKVbkR-1" vertex="1"><mxGeometry y="104" width="210" height="8" as="geometry"/></mxCell><mxCell id="15MtxCm3tCXQqDBKVbkR-4" value="+ getProgram(): Program" style="text;strokeColor=none;fillColor=none;align=left;verticalAlign=top;spacingLeft=4;spacingRight=4;overflow=hidden;rotatable=0;points=[[0,0.5],[1,0.5]];portConstraint=eastwest;" parent="15MtxCm3tCXQqDBKVbkR-1" vertex="1"><mxGeometry y="112" width="210" height="26" as="geometry"/></mxCell><mxCell id="15MtxCm3tCXQqDBKVbkR-7" value="+ addClause(String): Void" style="text;strokeColor=none;fillColor=none;align=left;verticalAlign=top;spacingLeft=4;spacingRight=4;overflow=hidden;rotatable=0;points=[[0,0.5],[1,0.5]];portConstraint=eastwest;" parent="15MtxCm3tCXQqDBKVbkR-1" vertex="1"><mxGeometry y="138" width="210" height="26" as="geometry"/></mxCell><mxCell id="15MtxCm3tCXQqDBKVbkR-8" value="+ parseAtom(String): Atom" style="text;strokeColor=none;fillColor=none;align=left;verticalAlign=top;spacingLeft=4;spacingRight=4;overflow=hidden;rotatable=0;points=[[0,0.5],[1,0.5]];portConstraint=eastwest;" parent="15MtxCm3tCXQqDBKVbkR-1" vertex="1"><mxGeometry y="164" width="210" height="26" as="geometry"/></mxCell><mxCell id="0j_pS4On5GD5i7ePpo8G-2" style="edgeStyle=orthogonalEdgeStyle;rounded=0;orthogonalLoop=1;jettySize=auto;html=1;entryX=0.5;entryY=0;entryDx=0;entryDy=0;" parent="15MtxCm3tCXQqDBKVbkR-32" source="Buhc0JhWifvyMd-CzRZ4-9" target="3v0b2HP5UYyjYqe04SpY-103" edge="1"><mxGeometry relative="1" as="geometry"/></mxCell><mxCell id="Buhc0JhWifvyMd-CzRZ4-9" value="Program" style="swimlane;fontStyle=1;align=center;verticalAlign=top;childLayout=stackLayout;horizontal=1;startSize=26;horizontalStack=0;resizeParent=1;resizeParentMax=0;resizeLast=0;collapsible=1;marginBottom=0;" parent="15MtxCm3tCXQqDBKVbkR-32" vertex="1"><mxGeometry x="335" y="90" width="160" height="86" as="geometry"><mxRectangle x="705" y="124" width="90" height="30" as="alternateBounds"/></mxGeometry></mxCell><mxCell id="Buhc0JhWifvyMd-CzRZ4-10" value="+ clauses: List&lt;Clause&gt;" style="text;strokeColor=none;fillColor=none;align=left;verticalAlign=top;spacingLeft=4;spacingRight=4;overflow=hidden;rotatable=0;points=[[0,0.5],[1,0.5]];portConstraint=eastwest;" parent="Buhc0JhWifvyMd-CzRZ4-9" vertex="1"><mxGeometry y="26" width="160" height="26" as="geometry"/></mxCell><mxCell id="Buhc0JhWifvyMd-CzRZ4-11" value="" style="line;strokeWidth=1;fillColor=none;align=left;verticalAlign=middle;spacingTop=-1;spacingLeft=3;spacingRight=3;rotatable=0;labelPosition=right;points=[];portConstraint=eastwest;strokeColor=inherit;" parent="Buhc0JhWifvyMd-CzRZ4-9" vertex="1"><mxGeometry y="52" width="160" height="8" as="geometry"/></mxCell><mxCell id="Buhc0JhWifvyMd-CzRZ4-12" value="+ toString(): String" style="text;strokeColor=none;fillColor=none;align=left;verticalAlign=top;spacingLeft=4;spacingRight=4;overflow=hidden;rotatable=0;points=[[0,0.5],[1,0.5]];portConstraint=eastwest;" parent="Buhc0JhWifvyMd-CzRZ4-9" vertex="1"><mxGeometry y="60" width="160" height="26" as="geometry"/></mxCell><mxCell id="15MtxCm3tCXQqDBKVbkR-31" style="edgeStyle=orthogonalEdgeStyle;rounded=0;orthogonalLoop=1;jettySize=auto;html=1;entryX=0;entryY=0.5;entryDx=0;entryDy=0;" parent="15MtxCm3tCXQqDBKVbkR-32" source="15MtxCm3tCXQqDBKVbkR-5" target="Buhc0JhWifvyMd-CzRZ4-10" edge="1"><mxGeometry relative="1" as="geometry"/></mxCell><mxCell id="0j_pS4On5GD5i7ePpo8G-1" style="edgeStyle=orthogonalEdgeStyle;rounded=0;orthogonalLoop=1;jettySize=auto;html=1;" parent="15MtxCm3tCXQqDBKVbkR-32" source="3v0b2HP5UYyjYqe04SpY-103" target="3v0b2HP5UYyjYqe04SpY-70" edge="1"><mxGeometry relative="1" as="geometry"/></mxCell><mxCell id="3v0b2HP5UYyjYqe04SpY-103" value="Clause" style="swimlane;fontStyle=1;align=center;verticalAlign=top;childLayout=stackLayout;horizontal=1;startSize=26;horizontalStack=0;resizeParent=1;resizeParentMax=0;resizeLast=0;collapsible=1;marginBottom=0;" parent="15MtxCm3tCXQqDBKVbkR-32" vertex="1"><mxGeometry x="330" y="210" width="170" height="138" as="geometry"/></mxCell><mxCell id="3v0b2HP5UYyjYqe04SpY-104" value="+ instances: Map&lt;Int,Clause&gt;" style="text;strokeColor=none;fillColor=none;align=left;verticalAlign=top;spacingLeft=4;spacingRight=4;overflow=hidden;rotatable=0;points=[[0,0.5],[1,0.5]];portConstraint=eastwest;" parent="3v0b2HP5UYyjYqe04SpY-103" vertex="1"><mxGeometry y="26" width="170" height="26" as="geometry"/></mxCell><mxCell id="3v0b2HP5UYyjYqe04SpY-111" value="+ head: Atom" style="text;strokeColor=none;fillColor=none;align=left;verticalAlign=top;spacingLeft=4;spacingRight=4;overflow=hidden;rotatable=0;points=[[0,0.5],[1,0.5]];portConstraint=eastwest;" parent="3v0b2HP5UYyjYqe04SpY-103" vertex="1"><mxGeometry y="52" width="170" height="26" as="geometry"/></mxCell><mxCell id="3v0b2HP5UYyjYqe04SpY-112" value="+ body: AtomList" style="text;strokeColor=none;fillColor=none;align=left;verticalAlign=top;spacingLeft=4;spacingRight=4;overflow=hidden;rotatable=0;points=[[0,0.5],[1,0.5]];portConstraint=eastwest;" parent="3v0b2HP5UYyjYqe04SpY-103" vertex="1"><mxGeometry y="78" width="170" height="26" as="geometry"/></mxCell><mxCell id="3v0b2HP5UYyjYqe04SpY-105" value="" style="line;strokeWidth=1;fillColor=none;align=left;verticalAlign=middle;spacingTop=-1;spacingLeft=3;spacingRight=3;rotatable=0;labelPosition=right;points=[];portConstraint=eastwest;strokeColor=inherit;" parent="3v0b2HP5UYyjYqe04SpY-103" vertex="1"><mxGeometry y="104" width="170" height="8" as="geometry"/></mxCell><mxCell id="3v0b2HP5UYyjYqe04SpY-106" value="+ getInstance(int): Clause" style="text;strokeColor=none;fillColor=none;align=left;verticalAlign=top;spacingLeft=4;spacingRight=4;overflow=hidden;rotatable=0;points=[[0,0.5],[1,0.5]];portConstraint=eastwest;" parent="3v0b2HP5UYyjYqe04SpY-103" vertex="1"><mxGeometry y="112" width="170" height="26" as="geometry"/></mxCell><mxCell id="0j_pS4On5GD5i7ePpo8G-3" style="edgeStyle=orthogonalEdgeStyle;rounded=0;orthogonalLoop=1;jettySize=auto;html=1;" parent="15MtxCm3tCXQqDBKVbkR-32" source="3v0b2HP5UYyjYqe04SpY-70" target="Buhc0JhWifvyMd-CzRZ4-21" edge="1"><mxGeometry relative="1" as="geometry"><Array as="points"/></mxGeometry></mxCell><mxCell id="3v0b2HP5UYyjYqe04SpY-70" value="Atom" style="swimlane;fontStyle=1;align=center;verticalAlign=top;childLayout=stackLayout;horizontal=1;startSize=26;horizontalStack=0;resizeParent=1;resizeParentMax=0;resizeLast=0;collapsible=1;marginBottom=0;" parent="15MtxCm3tCXQqDBKVbkR-32" vertex="1"><mxGeometry x="335" y="406" width="160" height="184" as="geometry"/></mxCell><mxCell id="3v0b2HP5UYyjYqe04SpY-71" value="+ predicate: Predicate" style="text;strokeColor=none;fillColor=none;align=left;verticalAlign=top;spacingLeft=4;spacingRight=4;overflow=hidden;rotatable=0;points=[[0,0.5],[1,0.5]];portConstraint=eastwest;" parent="3v0b2HP5UYyjYqe04SpY-70" vertex="1"><mxGeometry y="26" width="160" height="26" as="geometry"/></mxCell><mxCell id="3v0b2HP5UYyjYqe04SpY-72" value="+ args: List&lt;Term&gt;" style="text;strokeColor=none;fillColor=none;align=left;verticalAlign=top;spacingLeft=4;spacingRight=4;overflow=hidden;rotatable=0;points=[[0,0.5],[1,0.5]];portConstraint=eastwest;" parent="3v0b2HP5UYyjYqe04SpY-70" vertex="1"><mxGeometry y="52" width="160" height="26" as="geometry"/></mxCell><mxCell id="3v0b2HP5UYyjYqe04SpY-75" value="+ temporal: Temporal" style="text;strokeColor=none;fillColor=none;align=left;verticalAlign=top;spacingLeft=4;spacingRight=4;overflow=hidden;rotatable=0;points=[[0,0.5],[1,0.5]];portConstraint=eastwest;" parent="3v0b2HP5UYyjYqe04SpY-70" vertex="1"><mxGeometry y="78" width="160" height="26" as="geometry"/></mxCell><mxCell id="3v0b2HP5UYyjYqe04SpY-76" value="+ instances: Map&lt;Int,Atom&gt;" style="text;strokeColor=none;fillColor=none;align=left;verticalAlign=top;spacingLeft=4;spacingRight=4;overflow=hidden;rotatable=0;points=[[0,0.5],[1,0.5]];portConstraint=eastwest;" parent="3v0b2HP5UYyjYqe04SpY-70" vertex="1"><mxGeometry y="104" width="160" height="26" as="geometry"/></mxCell><mxCell id="3v0b2HP5UYyjYqe04SpY-73" value="" style="line;strokeWidth=1;fillColor=none;align=left;verticalAlign=middle;spacingTop=-1;spacingLeft=3;spacingRight=3;rotatable=0;labelPosition=right;points=[];portConstraint=eastwest;strokeColor=inherit;" parent="3v0b2HP5UYyjYqe04SpY-70" vertex="1"><mxGeometry y="130" width="160" height="2" as="geometry"/></mxCell><mxCell id="3v0b2HP5UYyjYqe04SpY-74" value="+ toString(): String" style="text;strokeColor=none;fillColor=none;align=left;verticalAlign=top;spacingLeft=4;spacingRight=4;overflow=hidden;rotatable=0;points=[[0,0.5],[1,0.5]];portConstraint=eastwest;" parent="3v0b2HP5UYyjYqe04SpY-70" vertex="1"><mxGeometry y="132" width="160" height="26" as="geometry"/></mxCell><mxCell id="3v0b2HP5UYyjYqe04SpY-84" value="+ getInstance(int): Atom" style="text;strokeColor=none;fillColor=none;align=left;verticalAlign=top;spacingLeft=4;spacingRight=4;overflow=hidden;rotatable=0;points=[[0,0.5],[1,0.5]];portConstraint=eastwest;" parent="3v0b2HP5UYyjYqe04SpY-70" vertex="1"><mxGeometry y="158" width="160" height="26" as="geometry"/></mxCell><mxCell id="Buhc0JhWifvyMd-CzRZ4-17" value="Predicate" style="swimlane;fontStyle=1;align=center;verticalAlign=top;childLayout=stackLayout;horizontal=1;startSize=26;horizontalStack=0;resizeParent=1;resizeParentMax=0;resizeLast=0;collapsible=1;marginBottom=0;" parent="15MtxCm3tCXQqDBKVbkR-32" vertex="1"><mxGeometry x="550" y="670" width="160" height="132" as="geometry"/></mxCell><mxCell id="Buhc0JhWifvyMd-CzRZ4-18" value="+ id: String" style="text;strokeColor=none;fillColor=none;align=left;verticalAlign=top;spacingLeft=4;spacingRight=4;overflow=hidden;rotatable=0;points=[[0,0.5],[1,0.5]];portConstraint=eastwest;" parent="Buhc0JhWifvyMd-CzRZ4-17" vertex="1"><mxGeometry y="26" width="160" height="26" as="geometry"/></mxCell><mxCell id="3v0b2HP5UYyjYqe04SpY-69" value="+ nArgs: int" style="text;strokeColor=none;fillColor=none;align=left;verticalAlign=top;spacingLeft=4;spacingRight=4;overflow=hidden;rotatable=0;points=[[0,0.5],[1,0.5]];portConstraint=eastwest;" parent="Buhc0JhWifvyMd-CzRZ4-17" vertex="1"><mxGeometry y="52" width="160" height="26" as="geometry"/></mxCell><mxCell id="15MtxCm3tCXQqDBKVbkR-0" value="+ IDB: boolean" style="text;strokeColor=none;fillColor=none;align=left;verticalAlign=top;spacingLeft=4;spacingRight=4;overflow=hidden;rotatable=0;points=[[0,0.5],[1,0.5]];portConstraint=eastwest;" parent="Buhc0JhWifvyMd-CzRZ4-17" vertex="1"><mxGeometry y="78" width="160" height="26" as="geometry"/></mxCell><mxCell id="Buhc0JhWifvyMd-CzRZ4-19" value="" style="line;strokeWidth=1;fillColor=none;align=left;verticalAlign=middle;spacingTop=-1;spacingLeft=3;spacingRight=3;rotatable=0;labelPosition=right;points=[];portConstraint=eastwest;strokeColor=inherit;" parent="Buhc0JhWifvyMd-CzRZ4-17" vertex="1"><mxGeometry y="104" width="160" height="2" as="geometry"/></mxCell><mxCell id="Buhc0JhWifvyMd-CzRZ4-20" value="+ isIDB(): boolean" style="text;strokeColor=none;fillColor=none;align=left;verticalAlign=top;spacingLeft=4;spacingRight=4;overflow=hidden;rotatable=0;points=[[0,0.5],[1,0.5]];portConstraint=eastwest;" parent="Buhc0JhWifvyMd-CzRZ4-17" vertex="1"><mxGeometry y="106" width="160" height="26" as="geometry"/></mxCell><mxCell id="Buhc0JhWifvyMd-CzRZ4-21" value="Term" style="swimlane;fontStyle=1;align=center;verticalAlign=top;childLayout=stackLayout;horizontal=1;startSize=26;horizontalStack=0;resizeParent=1;resizeParentMax=0;resizeLast=0;collapsible=1;marginBottom=0;" parent="15MtxCm3tCXQqDBKVbkR-32" vertex="1"><mxGeometry x="377" y="860" width="180" height="52" as="geometry"/></mxCell><mxCell id="3v0b2HP5UYyjYqe04SpY-102" value="+ getVariant(int): TermInstance" style="text;strokeColor=none;fillColor=none;align=left;verticalAlign=top;spacingLeft=4;spacingRight=4;overflow=hidden;rotatable=0;points=[[0,0.5],[1,0.5]];portConstraint=eastwest;" parent="Buhc0JhWifvyMd-CzRZ4-21" vertex="1"><mxGeometry y="26" width="180" height="26" as="geometry"/></mxCell><mxCell id="3v0b2HP5UYyjYqe04SpY-48" value="Variable" style="swimlane;fontStyle=1;align=center;verticalAlign=top;childLayout=stackLayout;horizontal=1;startSize=26;horizontalStack=0;resizeParent=1;resizeParentMax=0;resizeLast=0;collapsible=1;marginBottom=0;" parent="15MtxCm3tCXQqDBKVbkR-32" vertex="1"><mxGeometry x="207" y="970" width="170" height="106" as="geometry"/></mxCell><mxCell id="3v0b2HP5UYyjYqe04SpY-49" value="+ id: String" style="text;strokeColor=none;fillColor=none;align=left;verticalAlign=top;spacingLeft=4;spacingRight=4;overflow=hidden;rotatable=0;points=[[0,0.5],[1,0.5]];portConstraint=eastwest;" parent="3v0b2HP5UYyjYqe04SpY-48" vertex="1"><mxGeometry y="26" width="170" height="26" as="geometry"/></mxCell><mxCell id="3v0b2HP5UYyjYqe04SpY-52" value="+ variants: Map&lt;Int,Variable&gt;" style="text;strokeColor=none;fillColor=none;align=left;verticalAlign=top;spacingLeft=4;spacingRight=4;overflow=hidden;rotatable=0;points=[[0,0.5],[1,0.5]];portConstraint=eastwest;" parent="3v0b2HP5UYyjYqe04SpY-48" vertex="1"><mxGeometry y="52" width="170" height="26" as="geometry"/></mxCell><mxCell id="3v0b2HP5UYyjYqe04SpY-50" value="" style="line;strokeWidth=1;fillColor=none;align=left;verticalAlign=middle;spacingTop=-1;spacingLeft=3;spacingRight=3;rotatable=0;labelPosition=right;points=[];portConstraint=eastwest;strokeColor=inherit;" parent="3v0b2HP5UYyjYqe04SpY-48" vertex="1"><mxGeometry y="78" width="170" height="2" as="geometry"/></mxCell><mxCell id="3v0b2HP5UYyjYqe04SpY-51" value="+ getVariant(int): Variable" style="text;strokeColor=none;fillColor=none;align=left;verticalAlign=top;spacingLeft=4;spacingRight=4;overflow=hidden;rotatable=0;points=[[0,0.5],[1,0.5]];portConstraint=eastwest;" parent="3v0b2HP5UYyjYqe04SpY-48" vertex="1"><mxGeometry y="80" width="170" height="26" as="geometry"/></mxCell><mxCell id="3v0b2HP5UYyjYqe04SpY-9" value="" style="endArrow=block;dashed=1;endFill=0;endSize=12;html=1;rounded=0;entryX=0;entryY=1;entryDx=0;entryDy=0;exitX=0.5;exitY=0;exitDx=0;exitDy=0;" parent="15MtxCm3tCXQqDBKVbkR-32" source="3v0b2HP5UYyjYqe04SpY-48" target="Buhc0JhWifvyMd-CzRZ4-21" edge="1"><mxGeometry width="160" relative="1" as="geometry"><mxPoint x="350" y="634" as="sourcePoint"/><mxPoint x="460" y="624" as="targetPoint"/></mxGeometry></mxCell><mxCell id="bf_opKrQrq_g4lvTxoD_-0" value="Temporal&#10;" style="swimlane;fontStyle=1;align=center;verticalAlign=top;childLayout=stackLayout;horizontal=1;startSize=26;horizontalStack=0;resizeParent=1;resizeParentMax=0;resizeLast=0;collapsible=1;marginBottom=0;" parent="15MtxCm3tCXQqDBKVbkR-32" vertex="1"><mxGeometry x="450" y="970" width="180" height="136" as="geometry"/></mxCell><mxCell id="bf_opKrQrq_g4lvTxoD_-1" value="+ tVar: Variable" style="text;strokeColor=none;fillColor=none;align=left;verticalAlign=top;spacingLeft=4;spacingRight=4;overflow=hidden;rotatable=0;points=[[0,0.5],[1,0.5]];portConstraint=eastwest;" parent="bf_opKrQrq_g4lvTxoD_-0" vertex="1"><mxGeometry y="26" width="180" height="26" as="geometry"/></mxCell><mxCell id="3v0b2HP5UYyjYqe04SpY-35" value="+ tConstant: int" style="text;strokeColor=none;fillColor=none;align=left;verticalAlign=top;spacingLeft=4;spacingRight=4;overflow=hidden;rotatable=0;points=[[0,0.5],[1,0.5]];portConstraint=eastwest;" parent="bf_opKrQrq_g4lvTxoD_-0" vertex="1"><mxGeometry y="52" width="180" height="26" as="geometry"/></mxCell><mxCell id="3v0b2HP5UYyjYqe04SpY-34" value="+ variants: Map&lt;Int,TemInst&gt;" style="text;strokeColor=none;fillColor=none;align=left;verticalAlign=top;spacingLeft=4;spacingRight=4;overflow=hidden;rotatable=0;points=[[0,0.5],[1,0.5]];portConstraint=eastwest;" parent="bf_opKrQrq_g4lvTxoD_-0" vertex="1"><mxGeometry y="78" width="180" height="26" as="geometry"/></mxCell><mxCell id="bf_opKrQrq_g4lvTxoD_-2" value="" style="line;strokeWidth=1;fillColor=none;align=left;verticalAlign=middle;spacingTop=-1;spacingLeft=3;spacingRight=3;rotatable=0;labelPosition=right;points=[];portConstraint=eastwest;strokeColor=inherit;" parent="bf_opKrQrq_g4lvTxoD_-0" vertex="1"><mxGeometry y="104" width="180" height="6" as="geometry"/></mxCell><mxCell id="bf_opKrQrq_g4lvTxoD_-3" value="+ getVariant(int): TempInst" style="text;strokeColor=none;fillColor=none;align=left;verticalAlign=top;spacingLeft=4;spacingRight=4;overflow=hidden;rotatable=0;points=[[0,0.5],[1,0.5]];portConstraint=eastwest;" parent="bf_opKrQrq_g4lvTxoD_-0" vertex="1"><mxGeometry y="110" width="180" height="26" as="geometry"/></mxCell><mxCell id="3v0b2HP5UYyjYqe04SpY-16" value="" style="endArrow=none;html=1;rounded=0;exitX=0;exitY=0.5;exitDx=0;exitDy=0;entryX=1;entryY=0.5;entryDx=0;entryDy=0;" parent="15MtxCm3tCXQqDBKVbkR-32" source="bf_opKrQrq_g4lvTxoD_-1" target="3v0b2HP5UYyjYqe04SpY-49" edge="1"><mxGeometry relative="1" as="geometry"><mxPoint x="250" y="674" as="sourcePoint"/><mxPoint x="220" y="684" as="targetPoint"/></mxGeometry></mxCell><mxCell id="3v0b2HP5UYyjYqe04SpY-17" value="1" style="resizable=0;html=1;align=right;verticalAlign=bottom;" parent="3v0b2HP5UYyjYqe04SpY-16" connectable="0" vertex="1"><mxGeometry x="1" relative="1" as="geometry"><mxPoint x="10" as="offset"/></mxGeometry></mxCell><mxCell id="3v0b2HP5UYyjYqe04SpY-97" value="" style="endArrow=block;dashed=1;endFill=0;endSize=12;html=1;rounded=0;exitX=0.5;exitY=0;exitDx=0;exitDy=0;entryX=0.5;entryY=1;entryDx=0;entryDy=0;" parent="15MtxCm3tCXQqDBKVbkR-32" source="bf_opKrQrq_g4lvTxoD_-0" target="Buhc0JhWifvyMd-CzRZ4-21" edge="1"><mxGeometry width="160" relative="1" as="geometry"><mxPoint x="320" y="774" as="sourcePoint"/><mxPoint x="480" y="774" as="targetPoint"/></mxGeometry></mxCell><mxCell id="3v0b2HP5UYyjYqe04SpY-36" value="Constant" style="swimlane;fontStyle=1;align=center;verticalAlign=top;childLayout=stackLayout;horizontal=1;startSize=26;horizontalStack=0;resizeParent=1;resizeParentMax=0;resizeLast=0;collapsible=1;marginBottom=0;" parent="15MtxCm3tCXQqDBKVbkR-32" vertex="1"><mxGeometry x="660" y="970" width="154" height="84" as="geometry"/></mxCell><mxCell id="3v0b2HP5UYyjYqe04SpY-37" value="+ id: String" style="text;strokeColor=none;fillColor=none;align=left;verticalAlign=top;spacingLeft=4;spacingRight=4;overflow=hidden;rotatable=0;points=[[0,0.5],[1,0.5]];portConstraint=eastwest;" parent="3v0b2HP5UYyjYqe04SpY-36" vertex="1"><mxGeometry y="26" width="154" height="26" as="geometry"/></mxCell><mxCell id="3v0b2HP5UYyjYqe04SpY-40" value="" style="line;strokeWidth=1;fillColor=none;align=left;verticalAlign=middle;spacingTop=-1;spacingLeft=3;spacingRight=3;rotatable=0;labelPosition=right;points=[];portConstraint=eastwest;strokeColor=inherit;" parent="3v0b2HP5UYyjYqe04SpY-36" vertex="1"><mxGeometry y="52" width="154" height="6" as="geometry"/></mxCell><mxCell id="3v0b2HP5UYyjYqe04SpY-41" value="+ getVariant(int): Constant" style="text;strokeColor=none;fillColor=none;align=left;verticalAlign=top;spacingLeft=4;spacingRight=4;overflow=hidden;rotatable=0;points=[[0,0.5],[1,0.5]];portConstraint=eastwest;" parent="3v0b2HP5UYyjYqe04SpY-36" vertex="1"><mxGeometry y="58" width="154" height="26" as="geometry"/></mxCell><mxCell id="3v0b2HP5UYyjYqe04SpY-98" value="" style="endArrow=block;dashed=1;endFill=0;endSize=12;html=1;rounded=0;exitX=0.5;exitY=0;exitDx=0;exitDy=0;entryX=1;entryY=1;entryDx=0;entryDy=0;" parent="15MtxCm3tCXQqDBKVbkR-32" source="3v0b2HP5UYyjYqe04SpY-36" target="Buhc0JhWifvyMd-CzRZ4-21" edge="1"><mxGeometry width="160" relative="1" as="geometry"><mxPoint x="304" y="618" as="sourcePoint"/><mxPoint x="210" y="514" as="targetPoint"/></mxGeometry></mxCell><mxCell id="0j_pS4On5GD5i7ePpo8G-5" style="edgeStyle=orthogonalEdgeStyle;rounded=0;orthogonalLoop=1;jettySize=auto;html=1;" parent="15MtxCm3tCXQqDBKVbkR-32" source="15MtxCm3tCXQqDBKVbkR-18" target="Buhc0JhWifvyMd-CzRZ4-21" edge="1"><mxGeometry relative="1" as="geometry"/></mxCell><mxCell id="0j_pS4On5GD5i7ePpo8G-6" style="edgeStyle=orthogonalEdgeStyle;rounded=0;orthogonalLoop=1;jettySize=auto;html=1;entryX=0;entryY=0.5;entryDx=0;entryDy=0;" parent="15MtxCm3tCXQqDBKVbkR-32" source="15MtxCm3tCXQqDBKVbkR-18" target="3v0b2HP5UYyjYqe04SpY-49" edge="1"><mxGeometry relative="1" as="geometry"/></mxCell><mxCell id="15MtxCm3tCXQqDBKVbkR-18" value="Sub " style="swimlane;fontStyle=1;childLayout=stackLayout;horizontal=1;startSize=26;fillColor=none;horizontalStack=0;resizeParent=1;resizeParentMax=0;resizeLast=0;collapsible=1;marginBottom=0;" parent="15MtxCm3tCXQqDBKVbkR-32" vertex="1"><mxGeometry x="42" y="912" width="140" height="78" as="geometry"/></mxCell><mxCell id="15MtxCm3tCXQqDBKVbkR-19" value="+ from: Variable" style="text;strokeColor=none;fillColor=none;align=left;verticalAlign=top;spacingLeft=4;spacingRight=4;overflow=hidden;rotatable=0;points=[[0,0.5],[1,0.5]];portConstraint=eastwest;" parent="15MtxCm3tCXQqDBKVbkR-18" vertex="1"><mxGeometry y="26" width="140" height="26" as="geometry"/></mxCell><mxCell id="15MtxCm3tCXQqDBKVbkR-20" value="+ to: Term" style="text;strokeColor=none;fillColor=none;align=left;verticalAlign=top;spacingLeft=4;spacingRight=4;overflow=hidden;rotatable=0;points=[[0,0.5],[1,0.5]];portConstraint=eastwest;" parent="15MtxCm3tCXQqDBKVbkR-18" vertex="1"><mxGeometry y="52" width="140" height="26" as="geometry"/></mxCell><mxCell id="15MtxCm3tCXQqDBKVbkR-49" value="«class»&lt;br&gt;&lt;b&gt;ArrayList&lt;/b&gt;" style="html=1;" parent="15MtxCm3tCXQqDBKVbkR-32" vertex="1"><mxGeometry x="57" y="260" width="110" height="50" as="geometry"/></mxCell><mxCell id="0j_pS4On5GD5i7ePpo8G-4" style="edgeStyle=orthogonalEdgeStyle;rounded=0;orthogonalLoop=1;jettySize=auto;html=1;entryX=0.5;entryY=0;entryDx=0;entryDy=0;" parent="15MtxCm3tCXQqDBKVbkR-32" source="3v0b2HP5UYyjYqe04SpY-76" target="Buhc0JhWifvyMd-CzRZ4-17" edge="1"><mxGeometry relative="1" as="geometry"/></mxCell><mxCell id="15MtxCm3tCXQqDBKVbkR-35" value="AtomList" style="swimlane;fontStyle=1;align=center;verticalAlign=top;childLayout=stackLayout;horizontal=1;startSize=26;horizontalStack=0;resizeParent=1;resizeParentMax=0;resizeLast=0;collapsible=1;marginBottom=0;" parent="15MtxCm3tCXQqDBKVbkR-32" vertex="1"><mxGeometry x="7" y="351" width="200" height="320" as="geometry"/></mxCell><mxCell id="15MtxCm3tCXQqDBKVbkR-36" value="- constantTime: Atomlist" style="text;strokeColor=none;fillColor=none;align=left;verticalAlign=top;spacingLeft=4;spacingRight=4;overflow=hidden;rotatable=0;points=[[0,0.5],[1,0.5]];portConstraint=eastwest;" parent="15MtxCm3tCXQqDBKVbkR-35" vertex="1"><mxGeometry y="26" width="200" height="26" as="geometry"/></mxCell><mxCell id="12" value="- variableTime: Atomlist" style="text;strokeColor=none;fillColor=none;align=left;verticalAlign=top;spacingLeft=4;spacingRight=4;overflow=hidden;rotatable=0;points=[[0,0.5],[1,0.5]];portConstraint=eastwest;" parent="15MtxCm3tCXQqDBKVbkR-35" vertex="1"><mxGeometry y="52" width="200" height="26" as="geometry"/></mxCell><mxCell id="10" value="- smallestConstant: Atomlist" style="text;strokeColor=none;fillColor=none;align=left;verticalAlign=top;spacingLeft=4;spacingRight=4;overflow=hidden;rotatable=0;points=[[0,0.5],[1,0.5]];portConstraint=eastwest;" parent="15MtxCm3tCXQqDBKVbkR-35" vertex="1"><mxGeometry y="78" width="200" height="26" as="geometry"/></mxCell><mxCell id="16" value="- smallestVariable: Atomlist" style="text;strokeColor=none;fillColor=none;align=left;verticalAlign=top;spacingLeft=4;spacingRight=4;overflow=hidden;rotatable=0;points=[[0,0.5],[1,0.5]];portConstraint=eastwest;" parent="15MtxCm3tCXQqDBKVbkR-35" vertex="1"><mxGeometry y="104" width="200" height="26" as="geometry"/></mxCell><mxCell id="9" value="- organized: Boolean" style="text;strokeColor=none;fillColor=none;align=left;verticalAlign=top;spacingLeft=4;spacingRight=4;overflow=hidden;rotatable=0;points=[[0,0.5],[1,0.5]];portConstraint=eastwest;" parent="15MtxCm3tCXQqDBKVbkR-35" vertex="1"><mxGeometry y="130" width="200" height="26" as="geometry"/></mxCell><mxCell id="15MtxCm3tCXQqDBKVbkR-37" value="" style="line;strokeWidth=1;fillColor=none;align=left;verticalAlign=middle;spacingTop=-1;spacingLeft=3;spacingRight=3;rotatable=0;labelPosition=right;points=[];portConstraint=eastwest;strokeColor=inherit;" parent="15MtxCm3tCXQqDBKVbkR-35" vertex="1"><mxGeometry y="156" width="200" height="8" as="geometry"/></mxCell><mxCell id="15MtxCm3tCXQqDBKVbkR-38" value="+ organize(): void" style="text;strokeColor=none;fillColor=none;align=left;verticalAlign=top;spacingLeft=4;spacingRight=4;overflow=hidden;rotatable=0;points=[[0,0.5],[1,0.5]];portConstraint=eastwest;" parent="15MtxCm3tCXQqDBKVbkR-35" vertex="1"><mxGeometry y="164" width="200" height="26" as="geometry"/></mxCell><mxCell id="13" value="+ constantTime(): AtomList" style="text;strokeColor=none;fillColor=none;align=left;verticalAlign=top;spacingLeft=4;spacingRight=4;overflow=hidden;rotatable=0;points=[[0,0.5],[1,0.5]];portConstraint=eastwest;" parent="15MtxCm3tCXQqDBKVbkR-35" vertex="1"><mxGeometry y="190" width="200" height="26" as="geometry"/></mxCell><mxCell id="14" value="+ variableTime(): AtomList" style="text;strokeColor=none;fillColor=none;align=left;verticalAlign=top;spacingLeft=4;spacingRight=4;overflow=hidden;rotatable=0;points=[[0,0.5],[1,0.5]];portConstraint=eastwest;" parent="15MtxCm3tCXQqDBKVbkR-35" vertex="1"><mxGeometry y="216" width="200" height="26" as="geometry"/></mxCell><mxCell id="17" value="+ smallestConstant(): AtomList" style="text;strokeColor=none;fillColor=none;align=left;verticalAlign=top;spacingLeft=4;spacingRight=4;overflow=hidden;rotatable=0;points=[[0,0.5],[1,0.5]];portConstraint=eastwest;" parent="15MtxCm3tCXQqDBKVbkR-35" vertex="1"><mxGeometry y="242" width="200" height="26" as="geometry"/></mxCell><mxCell id="18" value="+ smallestVariable(): AtomList" style="text;strokeColor=none;fillColor=none;align=left;verticalAlign=top;spacingLeft=4;spacingRight=4;overflow=hidden;rotatable=0;points=[[0,0.5],[1,0.5]];portConstraint=eastwest;" parent="15MtxCm3tCXQqDBKVbkR-35" vertex="1"><mxGeometry y="268" width="200" height="26" as="geometry"/></mxCell><mxCell id="19" value="+ toProgram(): Program" style="text;strokeColor=none;fillColor=none;align=left;verticalAlign=top;spacingLeft=4;spacingRight=4;overflow=hidden;rotatable=0;points=[[0,0.5],[1,0.5]];portConstraint=eastwest;" vertex="1" parent="15MtxCm3tCXQqDBKVbkR-35"><mxGeometry y="294" width="200" height="26" as="geometry"/></mxCell><mxCell id="pZTSC4Wf04tbW2nxhNo6-6" value="Extends" style="endArrow=block;endSize=16;endFill=0;html=1;rounded=0;entryX=0.5;entryY=1;entryDx=0;entryDy=0;" parent="15MtxCm3tCXQqDBKVbkR-32" source="15MtxCm3tCXQqDBKVbkR-35" target="15MtxCm3tCXQqDBKVbkR-49" edge="1"><mxGeometry width="160" relative="1" as="geometry"><mxPoint x="220" y="550" as="sourcePoint"/><mxPoint x="380" y="550" as="targetPoint"/></mxGeometry></mxCell><mxCell id="pZTSC4Wf04tbW2nxhNo6-10" style="edgeStyle=orthogonalEdgeStyle;rounded=0;orthogonalLoop=1;jettySize=auto;html=1;" parent="15MtxCm3tCXQqDBKVbkR-32" source="3v0b2HP5UYyjYqe04SpY-103" target="15MtxCm3tCXQqDBKVbkR-35" edge="1"><mxGeometry relative="1" as="geometry"><Array as="points"><mxPoint x="310" y="259"/><mxPoint x="310" y="320"/><mxPoint x="160" y="320"/></Array></mxGeometry></mxCell><mxCell id="bf_opKrQrq_g4lvTxoD_-8" value="Substitution" style="swimlane;fontStyle=1;align=center;verticalAlign=top;childLayout=stackLayout;horizontal=1;startSize=26;horizontalStack=0;resizeParent=1;resizeParentMax=0;resizeLast=0;collapsible=1;marginBottom=0;" parent="15MtxCm3tCXQqDBKVbkR-32" vertex="1"><mxGeometry x="7" y="740" width="300" height="138" as="geometry"><mxRectangle x="1230" y="530" width="110" height="30" as="alternateBounds"/></mxGeometry></mxCell><mxCell id="bf_opKrQrq_g4lvTxoD_-9" value="+ subs: List&lt;Sub&gt;" style="text;strokeColor=none;fillColor=none;align=left;verticalAlign=top;spacingLeft=4;spacingRight=4;overflow=hidden;rotatable=0;points=[[0,0.5],[1,0.5]];portConstraint=eastwest;" parent="bf_opKrQrq_g4lvTxoD_-8" vertex="1"><mxGeometry y="26" width="300" height="26" as="geometry"/></mxCell><mxCell id="bf_opKrQrq_g4lvTxoD_-10" value="" style="line;strokeWidth=1;fillColor=none;align=left;verticalAlign=middle;spacingTop=-1;spacingLeft=3;spacingRight=3;rotatable=0;labelPosition=right;points=[];portConstraint=eastwest;strokeColor=inherit;" parent="bf_opKrQrq_g4lvTxoD_-8" vertex="1"><mxGeometry y="52" width="300" height="8" as="geometry"/></mxCell><mxCell id="bf_opKrQrq_g4lvTxoD_-11" value="+ composition(Substitution, Substitution): Substitution" style="text;strokeColor=none;fillColor=none;align=left;verticalAlign=top;spacingLeft=4;spacingRight=4;overflow=hidden;rotatable=0;points=[[0,0.5],[1,0.5]];portConstraint=eastwest;" parent="bf_opKrQrq_g4lvTxoD_-8" vertex="1"><mxGeometry y="60" width="300" height="26" as="geometry"/></mxCell><mxCell id="15MtxCm3tCXQqDBKVbkR-33" value="+ isInSupport(Variable): boolean" style="text;strokeColor=none;fillColor=none;align=left;verticalAlign=top;spacingLeft=4;spacingRight=4;overflow=hidden;rotatable=0;points=[[0,0.5],[1,0.5]];portConstraint=eastwest;" parent="bf_opKrQrq_g4lvTxoD_-8" vertex="1"><mxGeometry y="86" width="300" height="26" as="geometry"/></mxCell><mxCell id="15MtxCm3tCXQqDBKVbkR-34" value="+ getSubstitution(Variable): TermInstance" style="text;strokeColor=none;fillColor=none;align=left;verticalAlign=top;spacingLeft=4;spacingRight=4;overflow=hidden;rotatable=0;points=[[0,0.5],[1,0.5]];portConstraint=eastwest;" parent="bf_opKrQrq_g4lvTxoD_-8" vertex="1"><mxGeometry y="112" width="300" height="26" as="geometry"/></mxCell><mxCell id="15MtxCm3tCXQqDBKVbkR-22" style="edgeStyle=orthogonalEdgeStyle;rounded=0;orthogonalLoop=1;jettySize=auto;html=1;" parent="15MtxCm3tCXQqDBKVbkR-32" source="bf_opKrQrq_g4lvTxoD_-8" target="15MtxCm3tCXQqDBKVbkR-18" edge="1"><mxGeometry relative="1" as="geometry"><Array as="points"><mxPoint x="112" y="890"/><mxPoint x="112" y="890"/></Array></mxGeometry></mxCell><mxCell id="5" style="edgeStyle=orthogonalEdgeStyle;rounded=0;orthogonalLoop=1;jettySize=auto;html=1;" parent="WIyWlLk6GJQsqaUBKTNV-1" source="0" target="15MtxCm3tCXQqDBKVbkR-39" edge="1"><mxGeometry relative="1" as="geometry"><Array as="points"><mxPoint x="560" y="601"/><mxPoint x="520" y="601"/></Array></mxGeometry></mxCell><mxCell id="0" value="Query" style="swimlane;fontStyle=1;align=center;verticalAlign=top;childLayout=stackLayout;horizontal=1;startSize=26;horizontalStack=0;resizeParent=1;resizeParentMax=0;resizeLast=0;collapsible=1;marginBottom=0;" parent="WIyWlLk6GJQsqaUBKTNV-1" vertex="1"><mxGeometry x="450" y="460" width="220" height="112" as="geometry"/></mxCell><mxCell id="1" value="+ AtomList queriedAtoms" style="text;strokeColor=none;fillColor=none;align=left;verticalAlign=top;spacingLeft=4;spacingRight=4;overflow=hidden;rotatable=0;points=[[0,0.5],[1,0.5]];portConstraint=eastwest;" parent="0" vertex="1"><mxGeometry y="26" width="220" height="26" as="geometry"/></mxCell><mxCell id="4" value="+ List&lt;Answer&gt; supportedAnswers" style="text;strokeColor=none;fillColor=none;align=left;verticalAlign=top;spacingLeft=4;spacingRight=4;overflow=hidden;rotatable=0;points=[[0,0.5],[1,0.5]];portConstraint=eastwest;" parent="0" vertex="1"><mxGeometry y="52" width="220" height="26" as="geometry"/></mxCell><mxCell id="2" value="" style="line;strokeWidth=1;fillColor=none;align=left;verticalAlign=middle;spacingTop=-1;spacingLeft=3;spacingRight=3;rotatable=0;labelPosition=right;points=[];portConstraint=eastwest;strokeColor=inherit;" parent="0" vertex="1"><mxGeometry y="78" width="220" height="8" as="geometry"/></mxCell><mxCell id="3" value="+ update(Program, time): void" style="text;strokeColor=none;fillColor=none;align=left;verticalAlign=top;spacingLeft=4;spacingRight=4;overflow=hidden;rotatable=0;points=[[0,0.5],[1,0.5]];portConstraint=eastwest;" parent="0" vertex="1"><mxGeometry y="86" width="220" height="26" as="geometry"/></mxCell><mxCell id="7" style="edgeStyle=orthogonalEdgeStyle;rounded=0;orthogonalLoop=1;jettySize=auto;html=1;" parent="WIyWlLk6GJQsqaUBKTNV-1" source="6AeWRE8-R8-ub3u7tAaj-12" target="pZTSC4Wf04tbW2nxhNo6-14" edge="1"><mxGeometry relative="1" as="geometry"><Array as="points"><mxPoint x="330" y="1072"/><mxPoint x="330" y="1072"/></Array></mxGeometry></mxCell></root></mxGraphModel></diagram></mxfile>